<mxfile host="app.diagrams.net" modified="2024-04-19T07:24:29.374Z" agent="Mozilla/5.0 (Windows NT 10.0; Win64; x64) AppleWebKit/537.36 (KHTML, like Gecko) Chrome/123.0.0.0 Safari/537.36 Edg/123.0.0.0" etag="SRDfvSuGVF-vs962O1OL" version="24.2.5" type="github">
  <diagram name="demo_app" id="lWILV54cWlS2tcR2En1p">
    <mxGraphModel dx="1002" dy="535" grid="1" gridSize="10" guides="1" tooltips="1" connect="1" arrows="1" fold="1" page="1" pageScale="1" pageWidth="827" pageHeight="1169" math="0" shadow="0">
      <root>
        <mxCell id="0" />
        <mxCell id="1" parent="0" />
        <mxCell id="HWoNVq9Y1wKRkqhW_M4x-11" value="demo app" style="rounded=0;whiteSpace=wrap;html=1;verticalAlign=top;fillColor=#d5e8d4;strokeColor=#82b366;" vertex="1" parent="1">
          <mxGeometry x="159" y="130" width="510" height="320" as="geometry" />
        </mxCell>
        <mxCell id="HWoNVq9Y1wKRkqhW_M4x-1" value="frontend" style="rounded=0;whiteSpace=wrap;html=1;verticalAlign=top;" vertex="1" parent="1">
          <mxGeometry x="184" y="180" width="120" height="250" as="geometry" />
        </mxCell>
        <mxCell id="HWoNVq9Y1wKRkqhW_M4x-2" value="map services" style="rounded=0;whiteSpace=wrap;html=1;verticalAlign=top;" vertex="1" parent="1">
          <mxGeometry x="354" y="180" width="120" height="250" as="geometry" />
        </mxCell>
        <mxCell id="HWoNVq9Y1wKRkqhW_M4x-3" value="data sources" style="rounded=0;whiteSpace=wrap;html=1;verticalAlign=top;" vertex="1" parent="1">
          <mxGeometry x="518" y="180" width="120" height="250" as="geometry" />
        </mxCell>
        <mxCell id="HWoNVq9Y1wKRkqhW_M4x-12" style="edgeStyle=orthogonalEdgeStyle;rounded=0;orthogonalLoop=1;jettySize=auto;html=1;entryX=0;entryY=0.5;entryDx=0;entryDy=0;" edge="1" parent="1" source="HWoNVq9Y1wKRkqhW_M4x-4" target="HWoNVq9Y1wKRkqhW_M4x-8">
          <mxGeometry relative="1" as="geometry" />
        </mxCell>
        <mxCell id="HWoNVq9Y1wKRkqhW_M4x-31" value="9090" style="edgeLabel;html=1;align=center;verticalAlign=middle;resizable=0;points=[];" vertex="1" connectable="0" parent="HWoNVq9Y1wKRkqhW_M4x-12">
          <mxGeometry x="-0.0459" y="-1" relative="1" as="geometry">
            <mxPoint x="-8" y="16" as="offset" />
          </mxGeometry>
        </mxCell>
        <mxCell id="HWoNVq9Y1wKRkqhW_M4x-4" value="react app" style="rounded=0;whiteSpace=wrap;html=1;fillColor=#e1d5e7;strokeColor=#9673a6;" vertex="1" parent="1">
          <mxGeometry x="194" y="220" width="100" height="40" as="geometry" />
        </mxCell>
        <mxCell id="HWoNVq9Y1wKRkqhW_M4x-6" value="npm server" style="rounded=0;whiteSpace=wrap;html=1;" vertex="1" parent="1">
          <mxGeometry x="194" y="285" width="100" height="40" as="geometry" />
        </mxCell>
        <mxCell id="HWoNVq9Y1wKRkqhW_M4x-7" value="leaflet.js" style="rounded=0;whiteSpace=wrap;html=1;fillColor=#60a917;fontColor=#ffffff;strokeColor=#2D7600;" vertex="1" parent="1">
          <mxGeometry x="194" y="350" width="100" height="40" as="geometry" />
        </mxCell>
        <mxCell id="HWoNVq9Y1wKRkqhW_M4x-13" style="edgeStyle=orthogonalEdgeStyle;rounded=0;orthogonalLoop=1;jettySize=auto;html=1;entryX=0;entryY=0.5;entryDx=0;entryDy=0;" edge="1" parent="1" source="HWoNVq9Y1wKRkqhW_M4x-8" target="HWoNVq9Y1wKRkqhW_M4x-9">
          <mxGeometry relative="1" as="geometry" />
        </mxCell>
        <mxCell id="HWoNVq9Y1wKRkqhW_M4x-27" value="5432" style="edgeLabel;html=1;align=center;verticalAlign=middle;resizable=0;points=[];" vertex="1" connectable="0" parent="HWoNVq9Y1wKRkqhW_M4x-13">
          <mxGeometry x="0.0247" relative="1" as="geometry">
            <mxPoint as="offset" />
          </mxGeometry>
        </mxCell>
        <mxCell id="HWoNVq9Y1wKRkqhW_M4x-14" style="edgeStyle=orthogonalEdgeStyle;rounded=0;orthogonalLoop=1;jettySize=auto;html=1;entryX=0;entryY=0.5;entryDx=0;entryDy=0;" edge="1" parent="1" source="HWoNVq9Y1wKRkqhW_M4x-8" target="HWoNVq9Y1wKRkqhW_M4x-10">
          <mxGeometry relative="1" as="geometry" />
        </mxCell>
        <mxCell id="HWoNVq9Y1wKRkqhW_M4x-28" value="storage" style="edgeLabel;html=1;align=center;verticalAlign=middle;resizable=0;points=[];" vertex="1" connectable="0" parent="HWoNVq9Y1wKRkqhW_M4x-14">
          <mxGeometry x="0.0269" y="-1" relative="1" as="geometry">
            <mxPoint as="offset" />
          </mxGeometry>
        </mxCell>
        <mxCell id="HWoNVq9Y1wKRkqhW_M4x-8" value="geoserwer" style="rounded=0;whiteSpace=wrap;html=1;fillColor=#dae8fc;strokeColor=#6c8ebf;" vertex="1" parent="1">
          <mxGeometry x="364" y="285" width="100" height="40" as="geometry" />
        </mxCell>
        <mxCell id="HWoNVq9Y1wKRkqhW_M4x-9" value="postgis" style="rounded=0;whiteSpace=wrap;html=1;fillColor=#fa6800;fontColor=#000000;strokeColor=#C73500;" vertex="1" parent="1">
          <mxGeometry x="528" y="260" width="100" height="40" as="geometry" />
        </mxCell>
        <mxCell id="HWoNVq9Y1wKRkqhW_M4x-10" value="gpkg, fgb files" style="rounded=0;whiteSpace=wrap;html=1;" vertex="1" parent="1">
          <mxGeometry x="528" y="325" width="100" height="40" as="geometry" />
        </mxCell>
        <mxCell id="HWoNVq9Y1wKRkqhW_M4x-22" style="edgeStyle=orthogonalEdgeStyle;rounded=0;orthogonalLoop=1;jettySize=auto;html=1;entryX=0;entryY=0;entryDx=0;entryDy=0;" edge="1" parent="1" source="HWoNVq9Y1wKRkqhW_M4x-15" target="HWoNVq9Y1wKRkqhW_M4x-8">
          <mxGeometry relative="1" as="geometry">
            <Array as="points">
              <mxPoint x="340" y="160" />
              <mxPoint x="340" y="285" />
            </Array>
          </mxGeometry>
        </mxCell>
        <mxCell id="HWoNVq9Y1wKRkqhW_M4x-33" value="ows" style="edgeLabel;html=1;align=center;verticalAlign=middle;resizable=0;points=[];" vertex="1" connectable="0" parent="HWoNVq9Y1wKRkqhW_M4x-22">
          <mxGeometry x="-0.8503" relative="1" as="geometry">
            <mxPoint as="offset" />
          </mxGeometry>
        </mxCell>
        <mxCell id="HWoNVq9Y1wKRkqhW_M4x-15" value="gis system client" style="shape=umlActor;verticalLabelPosition=bottom;verticalAlign=top;html=1;outlineConnect=0;" vertex="1" parent="1">
          <mxGeometry x="40" y="130" width="30" height="60" as="geometry" />
        </mxCell>
        <mxCell id="HWoNVq9Y1wKRkqhW_M4x-21" style="edgeStyle=orthogonalEdgeStyle;rounded=0;orthogonalLoop=1;jettySize=auto;html=1;entryX=0;entryY=0.25;entryDx=0;entryDy=0;" edge="1" parent="1" source="HWoNVq9Y1wKRkqhW_M4x-16" target="HWoNVq9Y1wKRkqhW_M4x-1">
          <mxGeometry relative="1" as="geometry" />
        </mxCell>
        <mxCell id="HWoNVq9Y1wKRkqhW_M4x-26" value="web browser" style="edgeLabel;html=1;align=center;verticalAlign=middle;resizable=0;points=[];" vertex="1" connectable="0" parent="HWoNVq9Y1wKRkqhW_M4x-21">
          <mxGeometry x="-0.7802" y="-1" relative="1" as="geometry">
            <mxPoint x="8" y="-1" as="offset" />
          </mxGeometry>
        </mxCell>
        <mxCell id="HWoNVq9Y1wKRkqhW_M4x-16" value="web app client" style="shape=umlActor;verticalLabelPosition=bottom;verticalAlign=top;html=1;outlineConnect=0;" vertex="1" parent="1">
          <mxGeometry x="40" y="350" width="30" height="60" as="geometry" />
        </mxCell>
      </root>
    </mxGraphModel>
  </diagram>
</mxfile>
